HIERARCHY
ROOT Hips
{
  OFFSET -102.467 93.6631 130.069
  CHANNELS 6 Xposition Yposition Zposition Zrotation Xrotation Yrotation
  JOINT LeftUpLeg
  {
    OFFSET 8.64259 1.95398 -2.38835
    CHANNELS 3 Zrotation Xrotation Yrotation
    JOINT LeftLeg
    {
      OFFSET 43.7702 0 0
      CHANNELS 3 Zrotation Xrotation Yrotation
      JOINT LeftFoot
      {
        OFFSET 40.6238 0 0
        CHANNELS 3 Zrotation Xrotation Yrotation
        JOINT LeftToeBase
        {
          OFFSET 12.7242 0 0
          CHANNELS 3 Zrotation Xrotation Yrotation
          End Site
          {
            OFFSET 0 0 0
          }
        }
      }
    }
  }
  JOINT RightUpLeg
  {
    OFFSET -8.2249 1.95398 -2.59336
    CHANNELS 3 Zrotation Xrotation Yrotation
    JOINT RightLeg
    {
      OFFSET 43.5653 0 0
      CHANNELS 3 Zrotation Xrotation Yrotation
      JOINT RightFoot
      {
        OFFSET 40.6238 0 0
        CHANNELS 3 Zrotation Xrotation Yrotation
        JOINT RightToeBase
        {
          OFFSET 12.7242 0 0
          CHANNELS 3 Zrotation Xrotation Yrotation
          End Site
          {
            OFFSET 0 0 0
          }
        }
      }
    }
  }
  JOINT Spine
  {
    OFFSET 0.165834 0.87714 6.61349
    CHANNELS 3 Zrotation Xrotation Yrotation
    JOINT Spine1
    {
      OFFSET 7.38963 1.71661e-005 0
      CHANNELS 3 Zrotation Xrotation Yrotation
      JOINT Spine2
      {
        OFFSET 11.9445 1.14441e-005 0
        CHANNELS 3 Zrotation Xrotation Yrotation
        JOINT Spine3
        {
          OFFSET 14.7254 4.19617e-005 0
          CHANNELS 3 Zrotation Xrotation Yrotation
          JOINT Spine4
          {
            OFFSET 10.9679 0 0
            CHANNELS 3 Zrotation Xrotation Yrotation
            JOINT RightShoulder
            {
              OFFSET 2.46616 -1.6653 3.69651
              CHANNELS 3 Zrotation Xrotation Yrotation
              JOINT RightArm
              {
                OFFSET 13.0012 0 0
                CHANNELS 3 Zrotation Xrotation Yrotation
                JOINT RightForeArm
                {
                  OFFSET 28.7848 1.52588e-005 0
                  CHANNELS 3 Zrotation Xrotation Yrotation
                  JOINT RightHand
                  {
                    OFFSET 26.5688 1.52588e-005 0
                    CHANNELS 3 Zrotation Xrotation Yrotation
                    End Site
                    {
                      OFFSET 0 0 0
                    }
                  }
                }
              }
            }
            JOINT LeftShoulder
            {
              OFFSET 2.38034 -1.29275 -3.7523
              CHANNELS 3 Zrotation Xrotation Yrotation
              JOINT LeftArm
              {
                OFFSET 16.3182 6.10351e-005 0
                CHANNELS 3 Zrotation Xrotation Yrotation
                JOINT LeftForeArm
                {
                  OFFSET 27.0901 0 0
                  CHANNELS 3 Zrotation Xrotation Yrotation
                  JOINT LeftHand
                  {
                    OFFSET 24.5451 1.52588e-005 0
                    CHANNELS 3 Zrotation Xrotation Yrotation
                    End Site
                    {
                      OFFSET 0 0 0
                    }
                  }
                }
              }
            }
            JOINT Neck
            {
              OFFSET 5.0226 -0.0266342 0
              CHANNELS 3 Zrotation Xrotation Yrotation
              JOINT Head
              {
                OFFSET 6.69363 2.86102e-005 0
                CHANNELS 3 Zrotation Xrotation Yrotation
                End Site
                {
                  OFFSET 0 0 0
                }
              }
            }
          }
        }
      }
    }
  }
}
MOTION
Frames:	9
Frame Time:	0.0416667
-0.337686 98.44 -6.25856 147.273 -87.2618 148.248 -173.219 2.32405 92.1108 -15.319 1.67002 1.76875 68.3136 3.13237 -1.97088 27.3025 0.274806 1.99113 174.896 2.72296 87.8626 -15.2645 -7.54974 0.064902 67.6549 -2.67166 2.84611 27.8171 0.265731 0.247135 -0.494217 7.24626 -90.1648 12.3808 -1.06032 -0.208432 0.710289 -1.06846 -0.161569 -21.8277 -0.94866 -0.517492 -1.815 -0.948653 -0.517497 101.022 -51.0919 -83.9286 31.1419 -11.4125 -6.48968 -0.233023 -3.82 -13.5993 -11.5594 -0.465246 -0.521172 -79.853 -54.0519 93.96 -27.558 8.26815 -17.9678 0.581328 24.8893 -5.54128 0.243468 -0.105321 -5.36633 -7.41743 -26.7783 7.35628 -18.396 -23.0087 -37.1577 
-0.318005 98.4444 -6.23057 146.278 -87.4578 147.215 -173.243 2.39183 92.0465 -15.12 1.66277 1.72512 68.1827 3.16426 -1.81271 27.4705 0.252791 1.88615 174.948 2.97884 87.8591 -15.4096 -7.43296 0.0232886 67.6926 -2.64289 2.80931 27.6498 0.413476 0.962153 -0.474293 7.18642 -90.1399 12.5007 -1.00882 -0.162892 0.830139 -1.01502 -0.118341 -21.7076 -0.913226 -0.458575 -1.69497 -0.913227 -0.458585 100.837 -51.7485 -84.1977 30.7587 -11.4169 -6.08954 -0.20851 -3.88457 -13.5027 -11.6981 -0.436856 -0.870265 -79.8472 -53.8064 93.96 -27.7778 8.07986 -17.6533 0.532454 25.0534 -5.15187 -0.224953 -0.106362 -5.37143 -6.05964 -23.5702 6.64624 -17.2165 -20.5336 -33.0016 
-0.305216 98.4361 -6.19853 145.736 -87.4848 146.67 -173.232 2.38491 92.0494 -15.0601 1.84896 1.70718 68.0706 3.16395 -1.71683 27.5797 0.252219 2.07428 174.917 2.94007 87.811 -15.279 -7.23291 0.0347837 67.7261 -2.48439 3.19353 27.5974 0.407024 0.837531 -0.452228 7.14216 -90.164 12.589 -0.976518 -0.213848 0.91837 -0.984986 -0.170672 -21.6191 -0.867098 -0.497465 -1.60643 -0.867095 -0.497468 100.733 -51.7676 -84.3564 30.6821 -11.3772 -5.7059 -0.132577 -3.43812 -13.702 -11.6059 -0.463156 -0.565401 -79.8458 -54.0902 93.9719 -27.7834 7.86573 -17.3502 0.532788 24.9722 -5.02091 -0.38628 -0.107847 -5.45188 -4.04679 -19.2801 6.27554 -16.0351 -17.0738 -27.7779 
-0.33755 98.4227 -6.18245 144.678 -87.272 145.627 -173.209 2.30994 92.1098 -15.187 1.84676 1.74254 68.1399 3.13891 -1.81269 27.5973 0.238928 1.86271 174.867 2.72874 87.8438 -15.2341 -7.35702 0.087747 67.7933 -2.72847 2.89566 27.6089 0.347878 0.469326 -0.399104 7.17995 -90.171 12.5133 -0.874289 -0.240595 0.842629 -0.884032 -0.201883 -21.6942 -0.761564 -0.492245 -1.68159 -0.761562 -0.492247 100.887 -51.8283 -84.1191 30.6397 -11.4484 -6.10872 -0.158716 -3.69812 -13.6599 -12.0083 -0.464398 -0.709802 -80.2048 -53.9029 93.4435 -28.1154 7.58484 -17.7158 0.675939 25.0339 -4.75024 -0.262545 -0.109888 -5.35101 -1.46864 -14.9409 4.77954 -15.0383 -13.3221 -22.59 
-0.393052 98.4402 -6.19606 142.055 -87.0283 142.872 -173.209 2.18852 92.0566 -15.1152 2.06282 1.7138 68.1091 3.17016 -1.82954 27.5634 0.237899 1.78212 174.839 2.67937 87.7634 -15.423 -6.9726 0.0209046 67.7989 -2.61301 2.99723 27.8359 0.352923 0.843322 -0.377444 7.17614 -90.1685 12.5209 -0.830046 -0.240498 0.850172 -0.839817 -0.203741 -21.6865 -0.719397 -0.478853 -1.67385 -0.71939 -0.478855 100.742 -52.0084 -84.3362 30.3703 -11.4695 -6.04241 -0.215518 -3.9788 -13.6676 -11.9436 -0.447106 -0.859718 -80.2842 -54.009 93.3327 -27.9995 7.6368 -17.9299 0.475895 25.1219 -4.45601 0.0796303 -0.112488 -5.39613 1.33138 -10.6576 3.83938 -16.6288 -9.11514 -18.5481 
-0.422442 98.4236 -6.2213 139.796 -86.8446 140.549 -173.235 2.22033 92.0233 -15.2525 2.18488 1.71002 68.1649 3.24425 -1.71226 27.5252 0.226251 1.49172 174.843 2.67457 87.7593 -15.6002 -6.90204 -0.00339033 67.924 -2.7409 2.82863 27.9331 0.290863 0.584354 -0.338378 7.16692 -90.1841 12.5392 -0.759931 -0.279655 0.868481 -0.771498 -0.245941 -21.6678 -0.640751 -0.495122 -1.65513 -0.640746 -0.495122 100.71 -51.9108 -84.3874 30.3395 -11.3999 -5.99434 -0.0320975 -3.0949 -13.6384 -11.6041 -0.40143 -1.20082 -80.2409 -54.4588 93.4138 -27.5022 7.76872 -18.1603 0.386552 25.6512 -4.53187 0.0923974 -0.112948 -5.37787 2.26364 -7.13713 2.84893 -16.9243 -5.86776 -14.7022 
-0.440978 98.4065 -6.2845 136.804 -86.6681 137.486 -173.394 2.26226 91.9083 -15.2732 2.43809 1.80854 68.0502 3.23216 -1.64902 27.657 0.238212 1.95748 174.798 2.79755 87.6954 -15.853 -6.70284 0.00723891 68.0268 -2.65378 2.96307 27.6792 0.388819 0.846732 -0.321585 7.1601 -90.1784 12.5529 -0.723814 -0.272385 0.88215 -0.735094 -0.240268 -21.654 -0.608497 -0.47734 -1.64135 -0.608481 -0.477331 100.6 -52.0438 -84.5515 30.191 -11.5772 -5.97782 -0.0668392 -3.43134 -13.6818 -11.8134 -0.415751 -1.12818 -80.2935 -54.4656 93.3382 -27.1595 8.29613 -17.7917 0.439791 25.0726 -5.45143 -0.404089 -0.096114 -4.70259 4.15365 -3.71754 1.44982 -18.3941 -2.55293 -10.9049 
-0.439862 98.395 -6.27914 132.322 -86.5468 132.925 -173.435 2.37045 91.8652 -15.1931 2.33179 1.79494 68.0322 3.13973 -1.87917 27.4624 0.2273 1.39492 174.775 2.84996 87.6309 -15.852 -6.0917 -0.0213679 68.2468 -2.49011 3.41662 27.2728 0.513843 1.06225 -0.295741 7.14159 -90.1749 12.59 -0.67084 -0.271237 0.919154 -0.682124 -0.241452 -21.6168 -0.55831 -0.46032 -1.60416 -0.558307 -0.46032 100.714 -52.1902 -84.374 29.9917 -11.3648 -6.02657 -0.267923 -3.83224 -13.6044 -11.0857 -0.391624 -1.12166 -80.4536 -54.7389 93.1184 -26.9089 8.18331 -17.8515 0.416184 25.1665 -5.32369 -0.0357029 -0.097417 -4.81749 4.90945 -1.64595 0.879646 -18.5684 -0.785754 -7.83472 
-0.494028 98.4057 -6.38663 132.19 -86.1927 132.648 -173.488 2.25837 91.7612 -15.3404 2.6521 1.80892 68.151 3.25743 -1.93354 27.2175 0.27984 1.92721 174.658 2.72418 87.5309 -15.9605 -6.53168 0.0471992 68.2076 -2.92851 2.62051 27.6311 0.340155 0.451083 -0.270161 7.16486 -90.1563 12.5436 -0.611126 -0.241301 0.872776 -0.621154 -0.21418 -21.6631 -0.510344 -0.41381 -1.65041 -0.510356 -0.41383 100.668 -52.2112 -84.4431 29.9508 -11.296 -5.72507 -0.451565 -4.21756 -13.7831 -10.7498 -0.394305 -0.953475 -80.467 -54.4462 93.0869 -27.0695 8.47877 -17.854 0.320173 25.4981 -5.38572 0.311616 -0.0974495 -4.63812 5.77916 -0.623795 0.414312 -18.9073 0.0213688 -5.47709 
